<svg xmlns="http://www.w3.org/2000/svg" viewBox="0 0 477 477">
    <path fill="#fff" d="M 116.40,228.99 C 116.40,228.99 341.42,3.97 341.42,3.97 346.72,-1.32 355.21,-1.32 360.51,3.97 365.81,9.27 365.81,17.77 360.51,23.07 360.51,23.07 145.09,238.49 145.09,238.49 145.09,238.49 360.51,453.91 360.51,453.91 365.81,459.21 365.81,467.70 360.51,473.00 357.91,475.60 354.41,477.00 351.01,477.00 347.62,477.00 344.12,475.70 341.52,473.00 341.52,473.00 116.50,247.98 116.50,247.98 111.20,242.79 111.20,234.19 116.40,228.99 116.40,228.99 116.40,228.99 116.40,228.99 Z M 230.33,246.13 C 230.33,246.13 308.69,324.50 308.69,324.50 310.54,326.34 313.49,326.34 315.34,324.50 317.18,322.65 317.18,319.69 315.34,317.85 315.34,317.85 240.32,242.83 240.32,242.83 240.32,242.83 315.34,167.81 315.34,167.81 317.18,165.96 317.18,163.00 315.34,161.16 314.43,160.25 313.22,159.77 312.03,159.77 310.85,159.77 309.63,160.22 308.73,161.16 308.73,161.16 230.36,239.52 230.36,239.52 228.52,241.33 228.52,244.32 230.33,246.13 230.33,246.13 230.33,246.13 230.33,246.13 Z" />
</svg>
