<svg xmlns="http://www.w3.org/2000/svg" viewBox="0 0 477 477">
    <path fill="#fff" d="M 360.60,228.99 C 360.60,228.99 135.58,3.97 135.58,3.97 130.28,-1.32 121.79,-1.32 116.49,3.97 111.19,9.27 111.19,17.77 116.49,23.07 116.49,23.07 331.91,238.49 331.91,238.49 331.91,238.49 116.49,453.91 116.49,453.91 111.19,459.21 111.19,467.70 116.49,473.00 119.09,475.60 122.59,477.00 125.98,477.00 129.38,477.00 132.88,475.70 135.48,473.00 135.48,473.00 360.50,247.98 360.50,247.98 365.80,242.79 365.80,234.19 360.60,228.99 360.60,228.99 360.60,228.99 360.60,228.99 Z M 246.67,246.13 C 246.67,246.13 168.31,324.50 168.31,324.50 166.46,326.34 163.50,326.34 161.66,324.50 159.81,322.65 159.81,319.69 161.66,317.85 161.66,317.85 236.68,242.83 236.68,242.83 236.68,242.83 161.66,167.81 161.66,167.81 159.81,165.96 159.81,163.00 161.66,161.16 162.56,160.25 163.78,159.77 164.97,159.77 166.15,159.77 167.37,160.22 168.27,161.16 168.27,161.16 246.64,239.52 246.64,239.52 248.48,241.33 248.48,244.32 246.67,246.13 246.67,246.13 246.67,246.13 246.67,246.13 Z" />
</svg>
